<?xml version="1.0" encoding="UTF-8" standalone="no"?>
<!-- Created with Inkscape (http://www.inkscape.org/) -->

<svg
   xmlns:dc="http://purl.org/dc/elements/1.1/"
   xmlns:cc="http://creativecommons.org/ns#"
   xmlns:rdf="http://www.w3.org/1999/02/22-rdf-syntax-ns#"
   xmlns:svg="http://www.w3.org/2000/svg"
   xmlns="http://www.w3.org/2000/svg"
   xmlns:sodipodi="http://sodipodi.sourceforge.net/DTD/sodipodi-0.dtd"
   xmlns:inkscape="http://www.inkscape.org/namespaces/inkscape"
   width="531.5"
   height="531.5"
   id="svg2"
   version="1.1"
   inkscape:version="0.48.3.1 r9886"
   sodipodi:docname="joey.svg">
  <defs
     id="defs4" />
  <sodipodi:namedview
     id="base"
     pagecolor="#ffffff"
     bordercolor="#666666"
     borderopacity="1.0"
     inkscape:pageopacity="0.0"
     inkscape:pageshadow="2"
     inkscape:zoom="1"
     inkscape:cx="130.06536"
     inkscape:cy="271.51937"
     inkscape:document-units="px"
     inkscape:current-layer="layer1"
     showgrid="false"
     units="mm"
     showguides="true"
     inkscape:guide-bbox="true"
     fit-margin-top="0"
     fit-margin-left="0"
     fit-margin-right="0"
     fit-margin-bottom="0"
     inkscape:window-width="1680"
     inkscape:window-height="991"
     inkscape:window-x="0"
     inkscape:window-y="27"
     inkscape:window-maximized="1" />
  <metadata
     id="metadata7">
    <rdf:RDF>
      <cc:Work
         rdf:about="">
        <dc:format>image/svg+xml</dc:format>
        <dc:type
           rdf:resource="http://purl.org/dc/dcmitype/StillImage" />
        <dc:title></dc:title>
      </cc:Work>
    </rdf:RDF>
  </metadata>
  <g
     inkscape:label="Layer 1"
     inkscape:groupmode="layer"
     id="layer1"
     transform="translate(-184.84375,-468.25)">
    <path
       style="fill:none;stroke:#ff0000;stroke-width:1px;stroke-linecap:round;stroke-linejoin:miter;stroke-opacity:1"
       d="M 628.36074,796.8663 C 646.29081,609.93251 506.97883,552.83474 442.1064,588.18129"
       id="path3771"
       inkscape:connector-curvature="0"
       sodipodi:nodetypes="cc" />
    <rect
       style="fill:none;stroke:#000000;stroke-width:0.99370313;stroke-miterlimit:4;stroke-opacity:1;stroke-dasharray:none"
       id="rect3759"
       width="69.872437"
       height="69.872437"
       x="-235.33134"
       y="1050.5731"
       transform="matrix(0.70710678,-0.70710678,0.70710678,0.70710678,0,0)" />
    <rect
       style="fill:none;stroke:#000000;stroke-width:0.86616451;stroke-miterlimit:4;stroke-opacity:1;stroke-dasharray:none"
       id="rect3761"
       width="162.12596"
       height="176.29918"
       x="-281.45813"
       y="873.34399"
       transform="matrix(0.70710678,-0.70710678,0.70710678,0.70710678,0,0)" />
    <rect
       style="fill:none;stroke:#000000;stroke-width:0.97924817;stroke-miterlimit:4;stroke-opacity:1;stroke-dasharray:none"
       id="rect3763"
       width="34.453823"
       height="69.886894"
       x="-217.62206"
       y="802.53442"
       transform="matrix(0.70710678,-0.70710678,0.70710678,0.70710678,0,0)" />
    <rect
       style="fill:none;stroke:#000000;stroke-width:0.93807161;stroke-miterlimit:4;stroke-opacity:1;stroke-dasharray:none"
       id="rect3765"
       width="193.94382"
       height="140.79422"
       x="-297.36703"
       y="643.2196"
       transform="matrix(0.70710678,-0.70710678,0.70710678,0.70710678,0,0)" />
    <rect
       style="fill:none;stroke:#000000;stroke-width:0.81917208;stroke-miterlimit:4;stroke-opacity:1;stroke-dasharray:none"
       id="rect3767"
       width="530.67688"
       height="530.67688"
       x="-715.9201"
       y="-999.33734"
       transform="scale(-1,-1)" />
    <path
       sodipodi:type="arc"
       style="fill:none;stroke:#000000;stroke-width:1px;stroke-linecap:butt;stroke-linejoin:miter;stroke-opacity:1"
       id="path3045"
       sodipodi:cx="376.5"
       sodipodi:cy="718.15448"
       sodipodi:rx="8.5"
       sodipodi:ry="9.5"
       d="m 385,718.15448 c 0,5.24671 -3.80558,9.5 -8.5,9.5 -4.69442,0 -8.5,-4.25329 -8.5,-9.5 0,-5.24671 3.80558,-9.5 8.5,-9.5 4.69442,0 8.5,4.25329 8.5,9.5 z"
       transform="matrix(0.41884147,-0.41884147,0.3747529,0.3747529,268.2107,867.01553)" />
    <path
       transform="matrix(0.41884147,-0.41884147,0.3747529,0.3747529,-220.69586,867.01551)"
       d="m 385,718.15448 c 0,5.24671 -3.80558,9.5 -8.5,9.5 -4.69442,0 -8.5,-4.25329 -8.5,-9.5 0,-5.24671 3.80558,-9.5 8.5,-9.5 4.69442,0 8.5,4.25329 8.5,9.5 z"
       sodipodi:ry="9.5"
       sodipodi:rx="8.5"
       sodipodi:cy="718.15448"
       sodipodi:cx="376.5"
       id="path3815"
       style="fill:none;stroke:#000000;stroke-width:1px;stroke-linecap:butt;stroke-linejoin:miter;stroke-opacity:1"
       sodipodi:type="arc" />
    <path
       sodipodi:type="arc"
       style="fill:none;stroke:#000000;stroke-width:1px;stroke-linecap:butt;stroke-linejoin:miter;stroke-opacity:1"
       id="path3817"
       sodipodi:cx="376.5"
       sodipodi:cy="718.15448"
       sodipodi:rx="8.5"
       sodipodi:ry="9.5"
       d="m 385,718.15448 c 0,5.24671 -3.80558,9.5 -8.5,9.5 -4.69442,0 -8.5,-4.25329 -8.5,-9.5 0,-5.24671 3.80558,-9.5 8.5,-9.5 4.69442,0 8.5,4.25329 8.5,9.5 z"
       transform="matrix(0.41884147,-0.41884147,0.3747529,0.3747529,-220.68685,378.11798)" />
    <path
       sodipodi:type="arc"
       style="fill:none;stroke:#000000;stroke-width:1px;stroke-linecap:butt;stroke-linejoin:miter;stroke-opacity:1"
       id="path3819"
       sodipodi:cx="376.5"
       sodipodi:cy="718.15448"
       sodipodi:rx="8.5"
       sodipodi:ry="9.5"
       d="m 385,718.15448 c 0,5.24671 -3.80558,9.5 -8.5,9.5 -4.69442,0 -8.5,-4.25329 -8.5,-9.5 0,-5.24671 3.80558,-9.5 8.5,-9.5 4.69442,0 8.5,4.25329 8.5,9.5 z"
       transform="matrix(0.41884147,-0.41884147,0.3747529,0.3747529,268.20618,378.12249)" />
    <path
       sodipodi:type="arc"
       style="fill:none;stroke:#000000;stroke-width:1px;stroke-linecap:butt;stroke-linejoin:miter;stroke-opacity:1"
       id="path3841"
       sodipodi:cx="376.5"
       sodipodi:cy="718.15448"
       sodipodi:rx="8.5"
       sodipodi:ry="9.5"
       d="m 385,718.15448 c 0,5.24671 -3.80558,9.5 -8.5,9.5 -4.69442,0 -8.5,-4.25329 -8.5,-9.5 0,-5.24671 3.80558,-9.5 8.5,-9.5 4.69442,0 8.5,4.25329 8.5,9.5 z"
       transform="matrix(0.41884147,-0.41884147,0.3747529,0.3747529,23.761921,622.56675)" />
  </g>
</svg>
