<?xml version="1.0" encoding="UTF-8" standalone="no"?>
<!-- Created with Inkscape (http://www.inkscape.org/) -->

<svg
   xmlns:dc="http://purl.org/dc/elements/1.1/"
   xmlns:cc="http://creativecommons.org/ns#"
   xmlns:rdf="http://www.w3.org/1999/02/22-rdf-syntax-ns#"
   xmlns:svg="http://www.w3.org/2000/svg"
   xmlns="http://www.w3.org/2000/svg"
   xmlns:sodipodi="http://sodipodi.sourceforge.net/DTD/sodipodi-0.dtd"
   xmlns:inkscape="http://www.inkscape.org/namespaces/inkscape"
   width="751.65448"
   height="751.64172"
   id="svg2"
   version="1.1"
   inkscape:version="0.48.3.1 r9886"
   sodipodi:docname="joey.svg">
  <defs
     id="defs4" />
  <sodipodi:namedview
     id="base"
     pagecolor="#ffffff"
     bordercolor="#666666"
     borderopacity="1.0"
     inkscape:pageopacity="0.0"
     inkscape:pageshadow="2"
     inkscape:zoom="1"
     inkscape:cx="245.98142"
     inkscape:cy="360.8002"
     inkscape:document-units="px"
     inkscape:current-layer="layer1"
     showgrid="false"
     units="mm"
     showguides="true"
     inkscape:guide-bbox="true"
     fit-margin-top="0"
     fit-margin-left="0"
     fit-margin-right="0"
     fit-margin-bottom="0"
     inkscape:window-width="1680"
     inkscape:window-height="991"
     inkscape:window-x="0"
     inkscape:window-y="27"
     inkscape:window-maximized="1" />
  <metadata
     id="metadata7">
    <rdf:RDF>
      <cc:Work
         rdf:about="">
        <dc:format>image/svg+xml</dc:format>
        <dc:type
           rdf:resource="http://purl.org/dc/dcmitype/StillImage" />
        <dc:title />
      </cc:Work>
    </rdf:RDF>
  </metadata>
  <g
     inkscape:label="Layer 1"
     inkscape:groupmode="layer"
     id="layer1"
     transform="translate(-74.754445,-358.18444)">
    <g
       id="g5710"
       transform="translate(-70.357125,11.313708)">
      <path
         id="path4007-1"
         d="m 299.10929,654.50359 c 0.647,-1.16899 8.828,-15.768 11.573,-20.667 0.559,-0.996 0.793,-0.933 0.893,-0.933 0.1,0 0.343,-0.057 0.916,0.95 2.814,4.941 11.184,19.631 11.812,20.634 0.878,1.401 1.345,2.694 1.345,4.151 0,1.457 0,100.032 0,100.665 0,0.688 -0.701,1.217 -1.355,0.765 -0.654,-0.452 -24.229,-16.874 -25.274,-17.559 -1.045,-0.685 -1.339,-1.431 -1.38,-2.495 -0.038,-0.979 -0.001,-80.042 -0.001,-81.41799 0,-1.37601 0.691,-2.68701 1.471,-4.09301 z"
         style="fill:#5fabe3"
         inkscape:connector-curvature="0" />
      <path
         id="path4065-5"
         d="m 315.36329,667.68959 h 3.364 v 0.608 c 0,2.459 -0.449,4.048 -1.346,4.769 -0.897,0.72 -2.882,1.08 -5.952,1.08 -3.485,0 -5.094,-0.569 -5.896,-1.708 -0.802,-1.139 -1.203,-4.184 -1.203,-9.135 0,-2.91599 0.544,-4.833 1.631,-5.752 1.087,-0.919 2.824,-1.37799 6.283,-1.37799 2.519,0 4.201,0.37799 5.047,1.13199 0.845,0.75501 1.268,2.254 1.268,4.496 l 0.014,0.401 h -3.364 v -0.45199 c 0,-1.15601 -0.219,-1.89601 -0.654,-2.22001 -0.435,-0.324 -1.43,-0.485 -2.982,-0.485 -2.079,0 -2.792,0.255 -3.211,0.764 -0.418,0.509 -0.627,2.019 -0.627,4.529 0,3.381 0.188,5.38301 0.562,6.004 0.374,0.621 1.055,0.93201 3.107,0.93201 1.665,0 2.745,-0.173 3.241,-0.51801 0.496,-0.346 0.744,-1.104 0.744,-2.277 l -0.026,-0.79 z"
         style="fill:#ffffff"
         inkscape:connector-curvature="0" />
      <path
         id="path4067-8"
         d="m 315.26229,678.32959 h 3.352 v 11.749 c 0,2.45801 -0.473,4.084 -1.417,4.878 -0.944,0.79401 -2.875,1.19 -5.79,1.19 -3.08,0 -4.684,-0.375 -5.641,-1.126 -0.958,-0.75 -1.437,-2.33299 -1.437,-4.748 V 678.3296 h 3.352 v 11.94299 c 0,1.302 0.232,2.128 0.698,2.47801 0.466,0.34999 1.146,0.524 2.872,0.524 1.768,0 2.879,-0.17701 3.332,-0.53101 0.452,-0.35399 0.679,-1.221 0.679,-2.601 V 678.3296 z"
         style="fill:#ffffff"
         inkscape:connector-curvature="0" />
      <path
         id="path4069-0"
         d="m 318.16129,705.47859 h -3.273 c -0.018,-0.163 -0.026,-0.284 -0.026,-0.362 -0.077,-0.99099 -0.297,-1.615 -0.659,-1.869 -0.362,-0.255 -1.217,-0.38199 -2.562,-0.38199 -1.587,0 -2.625,0.14599 -3.112,0.43899 -0.487,0.294 -0.73,0.91 -0.73,1.851 0,1.113 0.198,1.781 0.595,2.006 0.397,0.225 1.708,0.396 3.934,0.518 2.631,0.146 4.333,0.521 5.104,1.125 0.772,0.604 1.158,1.859 1.158,3.766 0,2.347 -0.452,3.862 -1.358,4.549 -0.905,0.68601 -2.903,1.028 -5.991,1.028 -2.777,0 -4.621,-0.33699 -5.531,-1.009 -0.91,-0.67399 -1.365,-2.036 -1.365,-4.08999 l -0.013,-0.64601 h 3.261 l 0.013,0.375 c 0,1.234 0.216,1.988 0.647,2.265 0.431,0.276 1.608,0.41401 3.532,0.41401 1.501,0 2.458,-0.15901 2.872,-0.47901 0.414,-0.32 0.621,-1.057 0.621,-2.21299 0,-0.85401 -0.157,-1.42101 -0.472,-1.70101 -0.315,-0.27999 -0.995,-0.45099 -2.038,-0.512 l -1.851,-0.11599 c -2.795,-0.164 -4.58,-0.55201 -5.356,-1.164 -0.776,-0.613 -1.165,-1.92901 -1.165,-3.947 0,-2.062 0.468,-3.436 1.404,-4.12101 0.936,-0.686 2.806,-1.02799 5.609,-1.02799 2.656,0 4.446,0.31399 5.369,0.944 0.923,0.63 1.385,1.859 1.385,3.688 v 0.671 z"
         style="fill:#ffffff"
         inkscape:connector-curvature="0" />
      <path
         id="path4071-3"
         d="m 307.68129,725.1496 v 4.762 h 9.498 v 2.82099 h -9.498 v 7.259 h -3.352 v -17.662 h 14.267 v 2.82001 h -10.915 z"
         style="fill:#ffffff"
         inkscape:connector-curvature="0" />
      <path
         id="path4073-4"
         d="m 299.06529,748.38259 c 0.865,0.59 24.148,16.807 25.277,17.562 1.129,0.755 1.305,1.67 1.305,2.15 0,0.48 0,2.393 0,2.835 0,0.442 -0.291,1.339 -1.327,0.602 -1.036,-0.737 -24.216,-16.692 -25.251,-17.543 -1.379,-1.163 -1.432,-1.993 -1.432,-2.352 0,-0.359 0,-2.384 0,-2.832 0,-0.448 0.563,-1.012 1.428,-0.422 z"
         style="fill:#afd4d9"
         inkscape:connector-curvature="0" />
      <path
         id="path4075-51"
         d="m 299.06929,759.55159 c 0.559,0.399 24.275,16.95 25.261,17.55 0.986,0.6 1.317,1.539 1.317,2.202 0,0.663 0,1.655 0,2.042 0,0.387 -0.578,0.951 -1.346,0.497 -0.768,-0.454 -23.986,-16.579 -25.236,-17.532 -1.25,-0.953 -1.428,-1.773 -1.428,-2.254 0,-0.481 0,-1.275 0,-2.042 0,-0.767 0.873,-0.863 1.432,-0.463 z"
         style="fill:#afd4d9"
         inkscape:connector-curvature="0" />
      <path
         id="path4077-1"
         d="m 299.08429,770.10059 c 0.543,0.412 24.375,16.867 25.209,17.515 0.834,0.648 1.354,1.948 1.354,2.313 0,0.365 0,1.162 0,1.459 0,0.297 -0.275,1.102 -1.319,0.379 -1.044,-0.723 -24.251,-16.832 -25.272,-17.559 -1.021,-0.727 -1.418,-1.293 -1.418,-1.986 0,-0.693 0,-1.115 0,-1.709 0,-0.594 0.903,-0.824 1.446,-0.412 z"
         style="fill:#afd4d9"
         inkscape:connector-curvature="0" />
      <path
         id="path4079-0"
         d="m 299.04129,779.78059 c 0.648,0.545 24.303,16.822 25.272,17.559 0.969,0.737 1.333,1.615 1.333,1.965 0,0.35 0,0.627 0,0.918 0,0.291 -0.482,0.807 -1.313,0.205 -0.831,-0.602 -23.956,-16.604 -25.269,-17.556 -1.313,-0.952 -1.428,-1.526 -1.428,-1.942 0,-0.416 0,-0.783 0,-1.334 0,-0.551 0.757,-0.36 1.405,0.185 z"
         style="fill:#afd4d9"
         inkscape:connector-curvature="0" />
      <path
         id="path4081-6"
         d="m 299.06929,788.42659 c 0.84,0.556 24.369,16.919 25.261,17.55 0.892,0.631 1.317,1.553 1.317,1.787 0,0.234 0,0.656 0,0.875 0,0.219 -0.613,0.539 -1.254,-0.012 -0.641,-0.551 -24.377,-16.9 -25.29,-17.569 -0.913,-0.669 -1.466,-1.429 -1.466,-1.877 0,-0.448 0,0.106 0,-0.624 0,-0.73 0.592,-0.686 1.432,-0.13 z"
         style="fill:#afd4d9"
         inkscape:connector-curvature="0" />
    </g>
    <rect
       style="fill:none;stroke:#000000;stroke-width:0.99370313;stroke-miterlimit:4;stroke-opacity:1;stroke-dasharray:none"
       id="rect3759"
       width="69.872437"
       height="69.872437"
       x="415.65656"
       y="946.94708" />
    <rect
       style="fill:none;stroke:#000000;stroke-width:0.86616451;stroke-miterlimit:4;stroke-opacity:1;stroke-dasharray:none"
       id="rect3761"
       width="162.12596"
       height="176.29918"
       x="369.52979"
       y="769.71796" />
    <rect
       style="fill:none;stroke:#000000;stroke-width:0.97924817;stroke-miterlimit:4;stroke-opacity:1;stroke-dasharray:none"
       id="rect3763"
       width="34.453823"
       height="69.886894"
       x="433.36584"
       y="698.90839" />
    <rect
       style="fill:none;stroke:#000000;stroke-width:0.93807161;stroke-miterlimit:4;stroke-opacity:1;stroke-dasharray:none"
       id="rect3765"
       width="193.94382"
       height="140.79422"
       x="353.62088"
       y="539.59357" />
    <rect
       style="fill:none;stroke:#000000;stroke-width:0.81917208;stroke-miterlimit:4;stroke-opacity:1;stroke-dasharray:none"
       id="rect3767"
       width="530.67688"
       height="530.67688"
       x="-1102.9634"
       y="-465.74469"
       transform="matrix(-0.70710678,-0.70710678,0.70710678,-0.70710678,0,0)" />
    <path
       sodipodi:type="arc"
       style="fill:none;stroke:#000000;stroke-width:1px;stroke-linecap:butt;stroke-linejoin:miter;stroke-opacity:1"
       id="path3045"
       sodipodi:cx="376.5"
       sodipodi:cy="718.15448"
       sodipodi:rx="8.5"
       sodipodi:ry="9.5"
       d="m 385,718.15448 c 0,5.24671 -3.80558,9.5 -8.5,9.5 -4.69442,0 -8.5,-4.25329 -8.5,-9.5 0,-5.24671 3.80558,-9.5 8.5,-9.5 4.69442,0 8.5,4.25329 8.5,9.5 z"
       transform="matrix(0.59233129,0,0,0.52998063,227.56895,699.10012)" />
    <path
       transform="matrix(0.59233129,0,0,0.52998063,-118.14018,353.39096)"
       d="m 385,718.15448 c 0,5.24671 -3.80558,9.5 -8.5,9.5 -4.69442,0 -8.5,-4.25329 -8.5,-9.5 0,-5.24671 3.80558,-9.5 8.5,-9.5 4.69442,0 8.5,4.25329 8.5,9.5 z"
       sodipodi:ry="9.5"
       sodipodi:rx="8.5"
       sodipodi:cy="718.15448"
       sodipodi:cx="376.5"
       id="path3815"
       style="fill:none;stroke:#000000;stroke-width:1px;stroke-linecap:butt;stroke-linejoin:miter;stroke-opacity:1"
       sodipodi:type="arc" />
    <path
       sodipodi:type="arc"
       style="fill:none;stroke:#000000;stroke-width:1px;stroke-linecap:butt;stroke-linejoin:miter;stroke-opacity:1"
       id="path3817"
       sodipodi:cx="376.5"
       sodipodi:cy="718.15448"
       sodipodi:rx="8.5"
       sodipodi:ry="9.5"
       d="m 385,718.15448 c 0,5.24671 -3.80558,9.5 -8.5,9.5 -4.69442,0 -8.5,-4.25329 -8.5,-9.5 0,-5.24671 3.80558,-9.5 8.5,-9.5 4.69442,0 8.5,4.25329 8.5,9.5 z"
       transform="matrix(0.59233129,0,0,0.52998063,227.56895,7.6945778)" />
    <path
       sodipodi:type="arc"
       style="fill:none;stroke:#000000;stroke-width:1px;stroke-linecap:butt;stroke-linejoin:miter;stroke-opacity:1"
       id="path3819"
       sodipodi:cx="376.5"
       sodipodi:cy="718.15448"
       sodipodi:rx="8.5"
       sodipodi:ry="9.5"
       d="m 385,718.15448 c 0,5.24671 -3.80558,9.5 -8.5,9.5 -4.69442,0 -8.5,-4.25329 -8.5,-9.5 0,-5.24671 3.80558,-9.5 8.5,-9.5 4.69442,0 8.5,4.25329 8.5,9.5 z"
       transform="matrix(0.59233129,0,0,0.52998063,573.26534,353.39734)" />
    <path
       sodipodi:type="arc"
       style="fill:none;stroke:#000000;stroke-width:1px;stroke-linecap:butt;stroke-linejoin:miter;stroke-opacity:1"
       id="path3841"
       sodipodi:cx="376.5"
       sodipodi:cy="718.15448"
       sodipodi:rx="8.5"
       sodipodi:ry="9.5"
       d="m 385,718.15448 c 0,5.24671 -3.80558,9.5 -8.5,9.5 -4.69442,0 -8.5,-4.25329 -8.5,-9.5 0,-5.24671 3.80558,-9.5 8.5,-9.5 4.69442,0 8.5,4.25329 8.5,9.5 z"
       transform="matrix(0.59233129,0,0,0.52998063,227.56895,353.39734)" />
    <path
       style="fill:none;stroke:#000000;stroke-width:1px;stroke-linecap:butt;stroke-linejoin:miter;stroke-opacity:1"
       d="m 472.5,273.14172 c 62,5.5 60.5,114 60.5,114 0,0 11,117 -76.5,135"
       id="path4442"
       inkscape:connector-curvature="0"
       transform="translate(74.754445,358.18444)"
       sodipodi:nodetypes="ccc" />
    <path
       style="fill:none;stroke:#000000;stroke-width:1.04601252px;stroke-linecap:butt;stroke-linejoin:miter;stroke-opacity:1"
       d="m 547.7055,627.27866 c 65.86099,5.665 65.01758,117.4825 65.01758,117.4825 0,0 11.68502,120.51 -81.26397,139.05"
       id="path4442-1"
       inkscape:connector-curvature="0"
       sodipodi:nodetypes="ccc" />
  </g>
</svg>
