<?xml version="1.0" encoding="UTF-8" standalone="no"?>
<!-- Created with Inkscape (http://www.inkscape.org/) -->

<svg
   xmlns:dc="http://purl.org/dc/elements/1.1/"
   xmlns:cc="http://creativecommons.org/ns#"
   xmlns:rdf="http://www.w3.org/1999/02/22-rdf-syntax-ns#"
   xmlns:svg="http://www.w3.org/2000/svg"
   xmlns="http://www.w3.org/2000/svg"
   xmlns:sodipodi="http://sodipodi.sourceforge.net/DTD/sodipodi-0.dtd"
   xmlns:inkscape="http://www.inkscape.org/namespaces/inkscape"
   width="1052.3622"
   height="744.09448"
   id="svg2"
   version="1.1"
   inkscape:version="0.48.3.1 r9886"
   sodipodi:docname="thin-card.svg">
  <defs
     id="defs4" />
  <sodipodi:namedview
     id="base"
     pagecolor="#ffffff"
     bordercolor="#666666"
     borderopacity="1.0"
     inkscape:pageopacity="0.0"
     inkscape:pageshadow="2"
     inkscape:zoom="0.71026608"
     inkscape:cx="294.10717"
     inkscape:cy="369.10172"
     inkscape:document-units="mm"
     inkscape:current-layer="layer1"
     showgrid="false"
     units="mm"
     showguides="true"
     inkscape:guide-bbox="true"
     fit-margin-top="0"
     fit-margin-left="0"
     fit-margin-right="0"
     fit-margin-bottom="0"
     inkscape:window-width="1440"
     inkscape:window-height="779"
     inkscape:window-x="0"
     inkscape:window-y="31"
     inkscape:window-maximized="1"
     inkscape:object-paths="false"
     inkscape:snap-intersection-paths="true"
     inkscape:snap-global="true"
     inkscape:snap-midpoints="true"
     showborder="true"
     inkscape:snap-smooth-nodes="false"
     inkscape:snap-object-midpoints="true"
     inkscape:snap-bbox="false"
     inkscape:bbox-nodes="true"
     inkscape:bbox-paths="true"
     inkscape:object-nodes="true" />
  <metadata
     id="metadata7">
    <rdf:RDF>
      <cc:Work
         rdf:about="">
        <dc:format>image/svg+xml</dc:format>
        <dc:type
           rdf:resource="http://purl.org/dc/dcmitype/StillImage" />
        <dc:title />
      </cc:Work>
    </rdf:RDF>
  </metadata>
  <g
     inkscape:label="Layer 1"
     inkscape:groupmode="layer"
     id="layer1"
     transform="translate(-74.754445,-365.73168)">
    <text
       xml:space="preserve"
       style="font-size:40px;font-style:normal;font-weight:normal;line-height:125%;letter-spacing:0px;word-spacing:0px;fill:#000000;fill-opacity:1;stroke:none;font-family:Sans"
       x="55.558399"
       y="682.56909"
       id="text3121"
       sodipodi:linespacing="125%"
       transform="translate(74.754445,358.18444)"><tspan
         sodipodi:role="line"
         id="tspan3123"
         x="55.558399"
         y="682.56909" /></text>
    <path
       style="fill:none;stroke:#000000;stroke-width:0.80722135px;stroke-linecap:butt;stroke-linejoin:miter;stroke-opacity:1"
       d="m 396.40364,451.70826 -285.81251,285.8125 0,17.0625 175.81251,175.84375 0,37.00002 31.15625,31.1875 37.03125,0 6.03125,6.03127 0,50.5937 18.75,18.75 51.125,0 18.78125,-18.7812 0,-50.5625 6.03125,-6.03127 37,0 31.1875,-31.1875 0,-37.00002 175.8125,-175.84375 0,-17.0625 -285.8125,-285.8125 -17.09375,0 z"
       id="path3127-5"
       inkscape:connector-curvature="0" />
    <rect
       style="opacity:0.95999995;fill:none;stroke:#000000;stroke-width:1;stroke-miterlimit:4;stroke-opacity:1;stroke-dasharray:none"
       id="rect3252-9"
       width="183.68681"
       height="173.0569"
       x="677.18176"
       y="401.66476" />
    <rect
       style="opacity:0.95999995;fill:none;stroke:#000000;stroke-width:1;stroke-miterlimit:4;stroke-opacity:1;stroke-dasharray:none"
       id="rect3252-9-3"
       width="183.68681"
       height="173.0569"
       x="677.18176"
       y="900.83624" />
    <rect
       style="opacity:0.95999995;fill:none;stroke:#000000;stroke-width:1;stroke-miterlimit:4;stroke-opacity:1;stroke-dasharray:none"
       id="rect3252-9-5"
       width="183.68681"
       height="173.0569"
       x="907.49677"
       y="401.66476" />
    <rect
       style="opacity:0.95999995;fill:none;stroke:#000000;stroke-width:1;stroke-miterlimit:4;stroke-opacity:1;stroke-dasharray:none"
       id="rect3252-9-4"
       width="183.68681"
       height="173.0569"
       x="907.49677"
       y="900.83624" />
    <g
       id="g4454"
       transform="translate(52.986716,-0.73047529)">
      <path
         transform="matrix(0.66357352,0,0,0.66357352,173.22035,499.13259)"
         d="m 260.64175,359.64349 c 0,2.67292 -2.16682,4.83974 -4.83973,4.83974 -2.67291,0 -4.83974,-2.16682 -4.83974,-4.83974 0,-2.67291 2.16683,-4.83973 4.83974,-4.83973 2.67291,0 4.83973,2.16682 4.83973,4.83973 z"
         sodipodi:ry="4.8397355"
         sodipodi:rx="4.8397355"
         sodipodi:cy="359.64349"
         sodipodi:cx="255.80202"
         id="path3645"
         style="fill:none;stroke:#000000;stroke-width:1;stroke-miterlimit:4;stroke-opacity:1;stroke-dasharray:none"
         sodipodi:type="arc" />
      <path
         transform="matrix(0.66357352,0,0,0.66357352,182.22035,508.13259)"
         d="m 260.64175,359.64349 c 0,2.67292 -2.16682,4.83974 -4.83973,4.83974 -2.67291,0 -4.83974,-2.16682 -4.83974,-4.83974 0,-2.67291 2.16683,-4.83973 4.83974,-4.83973 2.67291,0 4.83973,2.16682 4.83973,4.83973 z"
         sodipodi:ry="4.8397355"
         sodipodi:rx="4.8397355"
         sodipodi:cy="359.64349"
         sodipodi:cx="255.80202"
         id="path3645-2"
         style="fill:none;stroke:#000000;stroke-width:1;stroke-miterlimit:4;stroke-opacity:1;stroke-dasharray:none"
         sodipodi:type="arc" />
      <path
         transform="matrix(0.66357352,0,0,0.66357352,191.22035,499.13259)"
         d="m 260.64175,359.64349 c 0,2.67292 -2.16682,4.83974 -4.83973,4.83974 -2.67291,0 -4.83974,-2.16682 -4.83974,-4.83974 0,-2.67291 2.16683,-4.83973 4.83974,-4.83973 2.67291,0 4.83973,2.16682 4.83973,4.83973 z"
         sodipodi:ry="4.8397355"
         sodipodi:rx="4.8397355"
         sodipodi:cy="359.64349"
         sodipodi:cx="255.80202"
         id="path3645-8"
         style="fill:none;stroke:#000000;stroke-width:1;stroke-miterlimit:4;stroke-opacity:1;stroke-dasharray:none"
         sodipodi:type="arc" />
      <path
         transform="matrix(0.66357352,0,0,0.66357352,191.22035,517.13259)"
         d="m 260.64175,359.64349 c 0,2.67292 -2.16682,4.83974 -4.83973,4.83974 -2.67291,0 -4.83974,-2.16682 -4.83974,-4.83974 0,-2.67291 2.16683,-4.83973 4.83974,-4.83973 2.67291,0 4.83973,2.16682 4.83973,4.83973 z"
         sodipodi:ry="4.8397355"
         sodipodi:rx="4.8397355"
         sodipodi:cy="359.64349"
         sodipodi:cx="255.80202"
         id="path3645-3"
         style="fill:none;stroke:#000000;stroke-width:1;stroke-miterlimit:4;stroke-opacity:1;stroke-dasharray:none"
         sodipodi:type="arc" />
      <path
         transform="matrix(0.66357352,0,0,0.66357352,173.22035,517.13259)"
         d="m 260.64175,359.64349 c 0,2.67292 -2.16682,4.83974 -4.83973,4.83974 -2.67291,0 -4.83974,-2.16682 -4.83974,-4.83974 0,-2.67291 2.16683,-4.83973 4.83974,-4.83973 2.67291,0 4.83973,2.16682 4.83973,4.83973 z"
         sodipodi:ry="4.8397355"
         sodipodi:rx="4.8397355"
         sodipodi:cy="359.64349"
         sodipodi:cx="255.80202"
         id="path3645-7"
         style="fill:none;stroke:#000000;stroke-width:1;stroke-miterlimit:4;stroke-opacity:1;stroke-dasharray:none"
         sodipodi:type="arc" />
    </g>
  </g>
</svg>
